<svg width="46" height="45" viewBox="0 0 46 45" fill="none" xmlns="http://www.w3.org/2000/svg">
<path d="M45.49 22.4991C45.49 16.532 43.1206 10.8092 38.9029 6.58984C34.6853 2.37044 28.965 9.60517e-06 23.0004 9.60517e-06C17.3373 -0.00522235 11.8808 2.12711 7.72063 5.97107C3.5605 9.81503 1.00308 15.0876 0.559217 20.7357C0.115356 26.3837 1.81773 31.9913 5.32629 36.4385C8.83485 40.8856 13.8913 43.8448 19.4856 44.725V29.0013H13.7797V22.4991H19.4888V17.5429C19.4888 11.9052 22.8462 8.78751 27.9834 8.78751C30.4445 8.78751 33.0179 9.22785 33.0179 9.22785V14.7658H30.181C27.3859 14.7658 26.5184 16.5015 26.5184 18.2789V22.4991H32.7545L31.7585 29.0013H26.5152V44.725C31.8051 43.887 36.6225 41.1881 40.1008 37.1138C43.5791 33.0395 45.4901 27.8572 45.49 22.4991Z" fill="#1877F2"/>
<path d="M31.7553 29.0012L32.7512 22.4989H26.5152V18.2787C26.5152 16.5013 27.3827 14.7657 30.1778 14.7657H33.0147V9.22445C33.0147 9.22445 30.4412 8.78411 27.9802 8.78411C22.8398 8.78411 19.4856 11.9018 19.4856 17.5395V22.4989L13.7797 22.4991V29.0013L19.4888 29.0012V44.7248C21.8177 45.0915 24.1895 45.0915 26.5184 44.7248V29.0012H31.7553Z" fill="white"/>
</svg>
