<svg width="46" height="45" viewBox="0 0 46 45" fill="none" xmlns="http://www.w3.org/2000/svg">
<path d="M5 4H42V42H5V4Z" fill="#FEFEFE"/>
<path d="M38.8337 38.3438H32.1662V27.9001C32.1662 25.4101 32.1212 22.2038 28.6975 22.2038C25.225 22.2038 24.6925 24.9188 24.6925 27.7163V38.3438H18.025V16.8676H24.4262V19.8038H24.5162C25.8212 17.5763 28.2512 16.2413 30.8312 16.3351C37.5887 16.3351 38.8375 20.7788 38.8375 26.5651L38.8337 38.3438ZM10.5025 13.9313C9.47827 13.9264 8.49734 13.5176 7.77275 12.7937C7.04815 12.0698 6.6384 11.0893 6.63249 10.0651C6.63249 7.94256 8.37999 6.19506 10.5025 6.19506C12.625 6.19506 14.3687 7.94256 14.3725 10.0651C14.3725 12.1876 12.625 13.9313 10.5025 13.9313ZM13.8362 38.3438H7.16124V16.8676H13.8362V38.3438ZM42.1525 5.57371e-05H3.80874C2.93931 -0.00499412 2.10301 0.333279 1.48158 0.941366C0.860149 1.54945 0.503808 2.37822 0.48999 3.24756V41.7526C0.503808 42.6219 0.860149 43.4507 1.48158 44.0587C2.10301 44.6668 2.93931 45.0051 3.80874 45.0001H42.1562C43.0277 45.0071 43.8667 44.67 44.4909 44.0619C45.1152 43.4538 45.4742 42.6239 45.49 41.7526V3.24381C45.4742 2.37316 45.1149 1.54404 44.4905 0.937138C43.866 0.330239 43.027 -0.00524345 42.1562 0.00380547L42.1525 5.57371e-05Z" fill="#0A66C2"/>
</svg>
