<svg width="68" height="46" viewBox="0 0 68 46" fill="none" xmlns="http://www.w3.org/2000/svg">
<path d="M62.9615 0H5.26917C3.03879 0 1.23071 1.80808 1.23071 4.03846V40.9615C1.23071 43.1919 3.03879 45 5.26917 45H62.9615C65.1919 45 66.9999 43.1919 66.9999 40.9615V4.03846C66.9999 1.80808 65.1919 0 62.9615 0Z" fill="white" stroke="#F3F3F3" stroke-width="1.03448"/>
<path fill-rule="evenodd" clip-rule="evenodd" d="M25.1717 35.066V36.77V38.4741H24.4248V38.0603C24.1879 38.3672 23.8285 38.5598 23.34 38.5598C22.3767 38.5598 21.6217 37.8114 21.6217 36.77C21.6217 35.7294 22.3767 34.9802 23.34 34.9802C23.8285 34.9802 24.1879 35.1728 24.4248 35.4797V35.066H25.1717ZM23.4329 35.6789C22.7864 35.6789 22.3907 36.171 22.3907 36.77C22.3907 37.369 22.7864 37.8611 23.4329 37.8611C24.0506 37.8611 24.4676 37.3903 24.4676 36.77C24.4676 36.1498 24.0506 35.6789 23.4329 35.6789ZM50.4108 36.77C50.4108 36.171 50.8065 35.6789 51.453 35.6789C52.0715 35.6789 52.4877 36.1498 52.4877 36.77C52.4877 37.3903 52.0715 37.8611 51.453 37.8611C50.8065 37.8611 50.4108 37.369 50.4108 36.77ZM53.1927 33.6973V36.77V38.4741H52.445V38.0603C52.208 38.3672 51.8486 38.5598 51.3601 38.5598C50.3969 38.5598 49.6418 37.8114 49.6418 36.77C49.6418 35.7294 50.3969 34.9802 51.3601 34.9802C51.8486 34.9802 52.208 35.1728 52.445 35.4797V33.6973H53.1927ZM34.4427 35.6438C34.9239 35.6438 35.2331 35.9432 35.3122 36.4705H33.5297C33.6094 35.9784 33.9105 35.6438 34.4427 35.6438ZM32.7466 36.77C32.7466 35.7074 33.4507 34.9802 34.4575 34.9802C35.4199 34.9802 36.0812 35.7074 36.0886 36.77C36.0886 36.8695 36.0812 36.9627 36.0738 37.0548H33.5231C33.6309 37.6686 34.0692 37.8898 34.5504 37.8898C34.895 37.8898 35.262 37.7608 35.5498 37.5331L35.9158 38.0823C35.4988 38.4316 35.0251 38.5598 34.5077 38.5598C33.4795 38.5598 32.7466 37.8539 32.7466 36.77ZM43.476 36.77C43.476 36.171 43.8716 35.6789 44.5181 35.6789C45.1358 35.6789 45.5529 36.1498 45.5529 36.77C45.5529 37.3903 45.1358 37.8611 44.5181 37.8611C43.8716 37.8611 43.476 37.369 43.476 36.77ZM46.257 35.066V36.77V38.4741H45.5101V38.0603C45.2724 38.3672 44.9138 38.5598 44.4251 38.5598C43.4619 38.5598 42.7068 37.8114 42.7068 36.77C42.7068 35.7294 43.4619 34.9802 44.4251 34.9802C44.9138 34.9802 45.2724 35.1728 45.5101 35.4797V35.066H46.257ZM39.2579 36.77C39.2579 37.804 39.9834 38.5598 41.0905 38.5598C41.6079 38.5598 41.9525 38.4456 42.326 38.1533L41.9673 37.5543C41.6869 37.7543 41.3924 37.8611 41.0684 37.8611C40.4719 37.8539 40.0336 37.4262 40.0336 36.77C40.0336 36.1139 40.4719 35.6862 41.0684 35.6789C41.3924 35.6789 41.6869 35.7857 41.9673 35.9857L42.326 35.3866C41.9525 35.0945 41.6079 34.9802 41.0905 34.9802C39.9834 34.9802 39.2579 35.736 39.2579 36.77ZM47.9819 35.4797C48.1759 35.1802 48.4564 34.9802 48.8875 34.9802C49.0388 34.9802 49.2543 35.0088 49.4197 35.0732L49.1894 35.7719C49.0314 35.7074 48.8734 35.6862 48.7222 35.6862C48.2335 35.6862 47.9892 35.9995 47.9892 36.5635V38.4741H47.2415V35.066H47.9819V35.4797ZM28.8659 35.3369C28.5063 35.1018 28.0112 34.9802 27.465 34.9802C26.5947 34.9802 26.0345 35.394 26.0345 36.0714C26.0345 36.6272 26.4517 36.9699 27.2199 37.0769L27.5727 37.1266C27.9824 37.1838 28.1757 37.2907 28.1757 37.4833C28.1757 37.7469 27.9026 37.897 27.3926 37.897C26.8752 37.897 26.5019 37.7331 26.2501 37.5404L25.898 38.1174C26.3077 38.417 26.825 38.5598 27.3852 38.5598C28.3772 38.5598 28.9522 38.0962 28.9522 37.4474C28.9522 36.8483 28.4997 36.5349 27.752 36.4281L27.4 36.3774C27.0768 36.335 26.8177 36.2714 26.8177 36.0428C26.8177 35.7931 27.0619 35.6438 27.4715 35.6438C27.91 35.6438 28.3344 35.8078 28.5425 35.936L28.8659 35.3369ZM37.598 35.4797C37.7913 35.1802 38.0718 34.9802 38.5028 34.9802C38.6542 34.9802 38.8697 35.0088 39.0349 35.0732L38.8046 35.7719C38.6468 35.7074 38.4888 35.6862 38.3374 35.6862C37.8489 35.6862 37.6046 35.9995 37.6046 36.5635V38.4741H36.8577V35.066H37.598V35.4797ZM32.1288 35.066H30.9074V34.0319H30.1523V35.066H29.4556V35.7433H30.1523V37.2981C30.1523 38.0889 30.4615 38.5598 31.345 38.5598C31.669 38.5598 32.0425 38.4602 32.2794 38.2962L32.0639 37.6612C31.8409 37.7894 31.5967 37.8539 31.4026 37.8539C31.0291 37.8539 30.9074 37.6253 30.9074 37.2833V35.7433H32.1288V35.066ZM20.9611 36.335V38.4741H20.206V36.5774C20.206 35.9995 19.9617 35.6789 19.4517 35.6789C18.9557 35.6789 18.611 35.9931 18.611 36.5848V38.4741H17.856V36.5774C17.856 35.9995 17.6051 35.6789 17.1091 35.6789C16.5983 35.6789 16.2677 35.9931 16.2677 36.5848V38.4741H15.5134V35.066H16.2611V35.4862C16.5416 35.0872 16.9002 34.9802 17.267 34.9802C17.7918 34.9802 18.1653 35.2088 18.4022 35.5866C18.7188 35.1084 19.1712 34.9728 19.6097 34.9802C20.4437 34.9876 20.9611 35.5295 20.9611 36.335Z" fill="#231F20"/>
<path d="M39.9381 29.2748H28.6182V9.09033H39.9381V29.2748Z" fill="#FF5F00"/>
<path d="M29.3365 19.1826C29.3365 15.0881 31.2687 11.4408 34.2775 9.09035C32.0773 7.37158 29.3003 6.3457 26.2824 6.3457C19.1378 6.3457 13.3462 12.0929 13.3462 19.1826C13.3462 26.2723 19.1378 32.0195 26.2824 32.0195C29.3003 32.0195 32.0773 30.9936 34.2775 29.2748C31.2687 26.9245 29.3365 23.2771 29.3365 19.1826Z" fill="#EB001B"/>
<path d="M55.2096 19.1826C55.2096 26.2723 49.418 32.0195 42.2734 32.0195C39.2554 32.0195 36.4785 30.9936 34.2773 29.2748C37.287 26.9245 39.2193 23.2771 39.2193 19.1826C39.2193 15.0881 37.287 11.4408 34.2773 9.09035C36.4785 7.37158 39.2554 6.3457 42.2734 6.3457C49.418 6.3457 55.2096 12.0929 55.2096 19.1826Z" fill="#F79E1B"/>
</svg>
