<svg width="73" height="45" viewBox="0 0 73 45" fill="none" xmlns="http://www.w3.org/2000/svg">
<path d="M68.4091 0H4.39636C2.28572 0 0.574707 1.71101 0.574707 3.82166V41.1783C0.574707 43.289 2.28572 45 4.39636 45H68.4091C70.5197 45 72.2308 43.289 72.2308 41.1783V3.82166C72.2308 1.71101 70.5197 0 68.4091 0Z" fill="#0E4595"/>
<path d="M27.1541 31.9324L30.3414 13.229H35.4394L32.2498 31.9324H27.1541Z" fill="white"/>
<path d="M50.6677 13.6327C49.6577 13.2538 48.0751 12.8472 46.0987 12.8472C41.0613 12.8472 37.5129 15.3839 37.4827 19.0195C37.4544 21.707 40.0159 23.2062 41.9497 24.1009C43.934 25.0176 44.6011 25.6023 44.5917 26.4209C44.5791 27.6746 43.007 28.2474 41.5417 28.2474C39.5012 28.2474 38.4172 27.9639 36.7431 27.2656L36.0861 26.9683L35.3706 31.1553C36.5613 31.6773 38.7632 32.1297 41.0494 32.1531C46.4082 32.1531 49.8871 29.6454 49.9266 25.7631C49.9458 23.6355 48.5876 22.0163 45.6465 20.6815C43.8645 19.8162 42.7732 19.2389 42.7848 18.3628C42.7848 17.5854 43.7085 16.754 45.7043 16.754C47.3714 16.7282 48.5789 17.0917 49.5198 17.4706L49.9767 17.6864L50.6677 13.6327Z" fill="white"/>
<path d="M63.7864 13.229H59.8471C58.6268 13.229 57.7136 13.5621 57.1776 14.78L49.6064 31.9204H54.9597C54.9597 31.9204 55.8351 29.6158 56.033 29.1098C56.618 29.1098 61.8185 29.1178 62.562 29.1178C62.7144 29.7726 63.1822 31.9204 63.1822 31.9204H67.9127L63.7864 13.229ZM57.5364 25.3061C57.958 24.2285 59.5675 20.0778 59.5675 20.0778C59.5374 20.1276 59.986 18.9949 60.2434 18.2927L60.5881 19.9052C60.5881 19.9052 61.5642 24.3698 61.7682 25.306H57.5364V25.3061Z" fill="white"/>
<path d="M4.95795 13.229L4.89282 13.6183C6.90789 14.106 8.70771 14.8119 10.2834 15.6901L14.8069 31.9027L20.2007 31.8963L28.2266 13.229H22.8264L17.8353 25.9834L17.3035 23.3915C17.2789 23.3124 17.2523 23.233 17.2249 23.1536L15.4893 14.808C15.1807 13.6237 14.2857 13.2703 13.1784 13.229H4.95795Z" fill="white"/>
</svg>
