<svg version="1.1" id="Layer_1" xmlns="http://www.w3.org/2000/svg" xmlns:xlink="http://www.w3.org/1999/xlink" x="0px" y="0px"
	 width="100%" viewBox="0 0 400 400" enable-background="new 0 0 400 400" xml:space="preserve">
<path fill="#4A90E2" opacity="1.000000" stroke="none" 
	d="
M256.000000,401.000000 
	C170.666672,401.000000 85.833336,401.000000 1.000000,401.000000 
	C1.000000,267.666656 1.000000,134.333328 1.000000,1.000000 
	C134.333328,1.000000 267.666656,1.000000 401.000000,1.000000 
	C401.000000,134.333328 401.000000,267.666656 401.000000,401.000000 
	C352.833344,401.000000 304.666656,401.000000 256.000000,401.000000 
M242.011124,97.700264 
	C240.102020,97.342972 238.119324,96.453651 236.294586,96.706131 
	C189.790298,103.140686 143.308731,109.739334 96.808098,116.200600 
	C82.973053,118.122978 76.197250,125.289978 75.624779,139.284348 
	C75.167442,150.464417 76.621880,161.172760 84.338295,170.510605 
	C81.912659,171.339157 79.982635,171.827011 78.206596,172.647980 
	C75.932121,173.699310 73.781647,175.018875 71.577744,176.222839 
	C73.533508,178.022827 75.566727,179.746796 77.426323,181.641190 
	C80.016998,184.280334 83.532524,186.650558 84.737160,189.855652 
	C86.381355,194.230255 86.281998,199.275665 86.820053,204.045914 
	C87.308029,208.372147 85.355865,210.573166 81.042259,211.770477 
	C76.237083,213.104233 71.709808,215.439194 67.061554,217.338333 
	C67.164864,217.904190 67.268173,218.470062 67.371483,219.035919 
	C69.566490,219.863586 71.761497,220.691254 74.383163,221.679794 
	C66.409813,231.338379 66.314041,242.235413 68.164932,253.283234 
	C69.978394,264.107666 74.854935,271.917328 86.650612,275.493713 
	C117.072014,284.717194 147.164246,295.025574 177.406677,304.842957 
	C178.567352,305.219727 179.994339,305.301056 181.175079,305.015320 
	C227.767670,293.740112 274.346802,282.409241 320.923615,271.068970 
	C322.755188,270.623047 324.547180,270.014496 326.357605,269.481720 
	C326.455383,268.905151 326.553131,268.328583 326.650909,267.752014 
	C323.186066,266.131714 319.819031,264.241638 316.237579,262.942963 
	C306.429810,259.386475 306.331421,259.474457 307.249451,248.820984 
	C307.490601,246.022354 307.515533,242.830353 308.894684,240.592377 
	C310.962311,237.237244 314.076782,234.505402 316.867157,231.625824 
	C318.513062,229.927322 320.392639,228.455276 322.167114,226.881378 
	C320.326721,225.530350 318.478760,224.189331 316.655884,222.815048 
	C316.438995,222.651520 316.358887,222.306488 316.309784,222.217209 
	C328.795715,206.951538 329.392578,190.589096 321.457367,172.763458 
	C325.681671,171.543137 330.139679,170.255325 334.597656,168.967514 
	C334.667542,168.347870 334.737427,167.728226 334.807312,167.108597 
	C330.793274,165.391434 326.857910,163.450470 322.748199,162.005310 
	C314.999084,159.280304 314.904724,159.397324 315.170197,151.157272 
	C315.460083,142.160477 316.736176,133.747421 326.974365,130.203506 
	C328.407440,129.707443 329.296265,127.639099 330.437042,126.298569 
	C328.952972,125.194931 327.626984,123.573547 325.961243,123.064835 
	C298.259583,114.604904 270.515320,106.284424 242.011124,97.700264 
z"/>
<path fill="#FCFCFD" opacity="1.000000" stroke="none" 
	d="
M242.395859,97.816536 
	C270.515320,106.284424 298.259583,114.604904 325.961243,123.064835 
	C327.626984,123.573547 328.952972,125.194931 330.437042,126.298569 
	C329.296265,127.639099 328.407440,129.707443 326.974365,130.203506 
	C316.736176,133.747421 315.460083,142.160477 315.170197,151.157272 
	C314.904724,159.397324 314.999084,159.280304 322.748199,162.005310 
	C326.857910,163.450470 330.793274,165.391434 334.807312,167.108597 
	C334.737427,167.728226 334.667542,168.347870 334.597656,168.967514 
	C330.139679,170.255325 325.681671,171.543137 321.457367,172.763458 
	C329.392578,190.589096 328.795715,206.951538 316.309784,222.217209 
	C316.358887,222.306488 316.438995,222.651520 316.655884,222.815048 
	C318.478760,224.189331 320.326721,225.530350 322.167114,226.881378 
	C320.392639,228.455276 318.513062,229.927322 316.867157,231.625824 
	C314.076782,234.505402 310.962311,237.237244 308.894684,240.592377 
	C307.515533,242.830353 307.490601,246.022354 307.249451,248.820984 
	C306.331421,259.474457 306.429810,259.386475 316.237579,262.942963 
	C319.819031,264.241638 323.186066,266.131714 326.650909,267.752014 
	C326.553131,268.328583 326.455383,268.905151 326.357605,269.481720 
	C324.547180,270.014496 322.755188,270.623047 320.923615,271.068970 
	C274.346802,282.409241 227.767670,293.740112 181.175079,305.015320 
	C179.994339,305.301056 178.567352,305.219727 177.406677,304.842957 
	C147.164246,295.025574 117.072014,284.717194 86.650612,275.493713 
	C74.854935,271.917328 69.978394,264.107666 68.164932,253.283234 
	C66.314041,242.235413 66.409813,231.338379 74.383163,221.679794 
	C71.761497,220.691254 69.566490,219.863586 67.371483,219.035919 
	C67.268173,218.470062 67.164864,217.904190 67.061554,217.338333 
	C71.709808,215.439194 76.237083,213.104233 81.042259,211.770477 
	C85.355865,210.573166 87.308029,208.372147 86.820053,204.045914 
	C86.281998,199.275665 86.381355,194.230255 84.737160,189.855652 
	C83.532524,186.650558 80.016998,184.280334 77.426323,181.641190 
	C75.566727,179.746796 73.533508,178.022827 71.577744,176.222839 
	C73.781647,175.018875 75.932121,173.699310 78.206596,172.647980 
	C79.982635,171.827011 81.912659,171.339157 84.338295,170.510605 
	C76.621880,161.172760 75.167442,150.464417 75.624779,139.284348 
	C76.197250,125.289978 82.973053,118.122978 96.808098,116.200600 
	C143.308731,109.739334 189.790298,103.140686 236.294586,96.706131 
	C238.119324,96.453651 240.102020,97.342972 242.395859,97.816536 
M135.777451,244.690048 
	C119.808472,239.458878 103.850113,234.194931 87.865143,229.013062 
	C81.719727,227.020920 77.816978,229.081497 76.221924,235.288254 
	C74.262001,242.914764 74.851242,250.501923 77.484032,257.884796 
	C78.898315,261.850769 81.560745,264.546082 85.840599,265.728760 
	C113.732925,273.436188 141.596085,281.249115 169.471466,289.017944 
	C172.620453,289.895569 175.786179,290.713135 179.581528,291.729187 
	C179.717377,289.451569 179.852142,287.849976 179.901855,286.245728 
	C180.133865,278.757996 180.133911,271.255035 180.650528,263.787567 
	C180.895309,260.249359 179.683502,258.800995 176.408096,257.783722 
	C163.072403,253.641846 149.819702,249.232727 135.777451,244.690048 
M261.736389,193.210327 
	C247.020493,198.006073 232.285950,202.746307 217.614868,207.675461 
	C215.982040,208.224030 213.468384,209.845108 213.465881,210.973465 
	C213.443741,220.904099 213.898376,230.835800 214.231689,241.394363 
	C216.566132,240.861664 218.147278,240.568390 219.690460,240.138733 
	C249.032089,231.969299 278.356415,223.737076 307.720978,215.651047 
	C312.218933,214.412460 315.567139,211.747375 316.220703,207.460739 
	C317.308777,200.324539 318.207886,192.961334 317.616241,185.823868 
	C317.043915,178.919266 312.359222,176.800461 305.706055,178.944366 
	C291.290833,183.589508 276.891388,188.283585 261.736389,193.210327 
M83.419090,142.672028 
	C83.694679,145.986343 83.735077,149.340927 84.294029,152.606750 
	C85.518875,159.763138 89.137085,164.149643 96.824150,166.182053 
	C125.304550,173.712128 153.602448,181.932175 181.973175,189.877853 
	C183.671310,190.353455 185.406403,190.697098 188.734879,191.481903 
	C188.734879,181.622925 188.556885,172.663788 188.822845,163.717850 
	C188.928650,160.159729 187.966934,158.441788 184.419388,157.306015 
	C155.091263,147.916534 125.832947,138.309235 96.544838,128.794510 
	C89.648819,126.554214 85.681267,128.812210 84.138802,135.877060 
	C83.715126,137.817581 83.683266,139.843643 83.419090,142.672028 
M160.121246,199.355423 
	C136.558334,194.516068 112.995422,189.676697 89.973267,184.948395 
	C90.425461,192.711868 91.343735,199.917877 91.075890,207.079529 
	C90.914459,211.395569 92.230743,212.770004 96.132156,213.724091 
	C129.738052,221.942490 163.295746,230.357956 196.873901,238.690094 
	C200.821411,239.669632 204.805725,240.500870 208.442520,241.325897 
	C208.442520,231.101501 208.582657,221.483246 208.265366,211.880081 
	C208.225632,210.678024 205.924911,208.835587 204.408890,208.508453 
	C189.948517,205.388229 175.431396,202.530899 160.121246,199.355423 
M269.829926,143.315994 
	C269.182861,143.475449 268.540314,143.656830 267.888092,143.791153 
	C244.731705,148.559525 221.566956,153.287979 198.432571,158.160614 
	C196.720749,158.521164 193.873169,159.868286 193.839966,160.835266 
	C193.499252,170.759918 193.631134,180.700806 193.631134,191.248840 
	C232.610626,181.555450 271.741425,171.824432 310.060455,162.295273 
	C310.789368,152.672821 311.445923,144.005234 312.143433,134.797195 
	C298.588501,137.538147 284.629089,140.360870 269.829926,143.315994 
M222.225311,252.722748 
	C219.682327,253.487122 217.186249,254.537857 214.587784,254.963440 
	C205.977005,256.373718 197.313034,257.463593 188.713547,258.934143 
	C187.443542,259.151276 185.444656,260.736023 185.419357,261.729706 
	C185.171021,271.483032 185.269547,281.245148 185.269547,291.574951 
	C188.504410,290.798798 191.991837,289.984039 195.468216,289.124573 
	C229.669601,280.668976 263.858429,272.162140 298.084595,263.808044 
	C301.792908,262.902924 303.252472,261.468903 302.785065,257.417450 
	C302.294983,253.169632 302.580658,248.784821 302.967468,244.499619 
	C303.237396,241.509323 304.248596,238.585953 305.092712,234.920395 
	C300.559326,235.848358 296.842010,236.579742 293.137787,237.372345 
	C269.745148,242.377808 246.355392,247.396835 222.225311,252.722748 
z"/>
<path fill="#4D91E0" opacity="1.000000" stroke="none" 
	d="
M136.156921,244.806091 
	C149.819702,249.232727 163.072403,253.641846 176.408096,257.783722 
	C179.683502,258.800995 180.895309,260.249359 180.650528,263.787567 
	C180.133911,271.255035 180.133865,278.757996 179.901855,286.245728 
	C179.852142,287.849976 179.717377,289.451569 179.581528,291.729187 
	C175.786179,290.713135 172.620453,289.895569 169.471466,289.017944 
	C141.596085,281.249115 113.732925,273.436188 85.840599,265.728760 
	C81.560745,264.546082 78.898315,261.850769 77.484032,257.884796 
	C74.851242,250.501923 74.262001,242.914764 76.221924,235.288254 
	C77.816978,229.081497 81.719727,227.020920 87.865143,229.013062 
	C103.850113,234.194931 119.808472,239.458878 136.156921,244.806091 
z"/>
<path fill="#4D91E0" opacity="1.000000" stroke="none" 
	d="
M262.110931,193.083984 
	C276.891388,188.283585 291.290833,183.589508 305.706055,178.944366 
	C312.359222,176.800461 317.043915,178.919266 317.616241,185.823868 
	C318.207886,192.961334 317.308777,200.324539 316.220703,207.460739 
	C315.567139,211.747375 312.218933,214.412460 307.720978,215.651047 
	C278.356415,223.737076 249.032089,231.969299 219.690460,240.138733 
	C218.147278,240.568390 216.566132,240.861664 214.231689,241.394363 
	C213.898376,230.835800 213.443741,220.904099 213.465881,210.973465 
	C213.468384,209.845108 215.982040,208.224030 217.614868,207.675461 
	C232.285950,202.746307 247.020493,198.006073 262.110931,193.083984 
z"/>
<path fill="#4D91E0" opacity="1.000000" stroke="none" 
	d="
M83.445351,142.251251 
	C83.683266,139.843643 83.715126,137.817581 84.138802,135.877060 
	C85.681267,128.812210 89.648819,126.554214 96.544838,128.794510 
	C125.832947,138.309235 155.091263,147.916534 184.419388,157.306015 
	C187.966934,158.441788 188.928650,160.159729 188.822845,163.717850 
	C188.556885,172.663788 188.734879,181.622925 188.734879,191.481903 
	C185.406403,190.697098 183.671310,190.353455 181.973175,189.877853 
	C153.602448,181.932175 125.304550,173.712128 96.824150,166.182053 
	C89.137085,164.149643 85.518875,159.763138 84.294029,152.606750 
	C83.735077,149.340927 83.694679,145.986343 83.445351,142.251251 
z"/>
<path fill="#4E91DF" opacity="1.000000" stroke="none" 
	d="
M160.525909,199.476746 
	C175.431396,202.530899 189.948517,205.388229 204.408890,208.508453 
	C205.924911,208.835587 208.225632,210.678024 208.265366,211.880081 
	C208.582657,221.483246 208.442520,231.101501 208.442520,241.325897 
	C204.805725,240.500870 200.821411,239.669632 196.873901,238.690094 
	C163.295746,230.357956 129.738052,221.942490 96.132156,213.724091 
	C92.230743,212.770004 90.914459,211.395569 91.075890,207.079529 
	C91.343735,199.917877 90.425461,192.711868 89.973267,184.948395 
	C112.995422,189.676697 136.558334,194.516068 160.525909,199.476746 
z"/>
<path fill="#4E91DF" opacity="1.000000" stroke="none" 
	d="
M270.249817,143.249802 
	C284.629089,140.360870 298.588501,137.538147 312.143433,134.797195 
	C311.445923,144.005234 310.789368,152.672821 310.060455,162.295273 
	C271.741425,171.824432 232.610626,181.555450 193.631134,191.248840 
	C193.631134,180.700806 193.499252,170.759918 193.839966,160.835266 
	C193.873169,159.868286 196.720749,158.521164 198.432571,158.160614 
	C221.566956,153.287979 244.731705,148.559525 267.888092,143.791153 
	C268.540314,143.656830 269.182861,143.475449 270.249817,143.249802 
z"/>
<path fill="#4E91DF" opacity="1.000000" stroke="none" 
	d="
M222.595001,252.567062 
	C246.355392,247.396835 269.745148,242.377808 293.137787,237.372345 
	C296.842010,236.579742 300.559326,235.848358 305.092712,234.920395 
	C304.248596,238.585953 303.237396,241.509323 302.967468,244.499619 
	C302.580658,248.784821 302.294983,253.169632 302.785065,257.417450 
	C303.252472,261.468903 301.792908,262.902924 298.084595,263.808044 
	C263.858429,272.162140 229.669601,280.668976 195.468216,289.124573 
	C191.991837,289.984039 188.504410,290.798798 185.269547,291.574951 
	C185.269547,281.245148 185.171021,271.483032 185.419357,261.729706 
	C185.444656,260.736023 187.443542,259.151276 188.713547,258.934143 
	C197.313034,257.463593 205.977005,256.373718 214.587784,254.963440 
	C217.186249,254.537857 219.682327,253.487122 222.595001,252.567062 
z"/>
</svg>