<svg width="46" height="45" viewBox="0 0 46 45" fill="none" xmlns="http://www.w3.org/2000/svg">
<path fill-rule="evenodd" clip-rule="evenodd" d="M9.9086 22.5C9.9086 21.0385 10.1566 19.6374 10.5993 18.3232L2.85092 12.5325C1.3408 15.5332 0.48999 18.9143 0.48999 22.5C0.48999 26.0826 1.33976 29.4617 2.84778 32.4603L10.592 26.6584C10.1535 25.3503 9.9086 23.9543 9.9086 22.5Z" fill="#FBBC05"/>
<path fill-rule="evenodd" clip-rule="evenodd" d="M23.5132 9.20455C26.7574 9.20455 29.6877 10.3295 31.99 12.1705L38.6877 5.625C34.6063 2.14773 29.3737 0 23.5132 0C14.4149 0 6.59534 5.09216 2.85092 12.5325L10.5993 18.3232C12.3846 13.0193 17.4738 9.20455 23.5132 9.20455Z" fill="#EB4335"/>
<path fill-rule="evenodd" clip-rule="evenodd" d="M23.5132 35.7955C17.4738 35.7955 12.3846 31.9807 10.5993 26.6768L2.85092 32.4665C6.59534 39.9078 14.4149 45 23.5132 45C29.1288 45 34.4901 43.0486 38.5139 39.3924L31.1591 33.8277C29.0838 35.1072 26.4707 35.7955 23.5132 35.7955Z" fill="#34A853"/>
<path fill-rule="evenodd" clip-rule="evenodd" d="M45.49 22.5C45.49 21.1705 45.2807 19.7386 44.9667 18.4091H23.5132V27.1023H35.8621C35.2446 30.0661 33.5639 32.3448 31.1591 33.8277L38.5139 39.3924C42.7408 35.5531 45.49 29.834 45.49 22.5Z" fill="#4285F4"/>
</svg>
